<svg xmlns="http://www.w3.org/2000/svg" viewBox="0 0 32 32" width="48" height="48" style="vertical-align: middle; margin-right: 12px;">
  <defs>
    <linearGradient id="drawerMetal" x1="0%" y1="0%" x2="100%" y2="100%">
      <stop offset="0%" style="stop-color:#495057; stop-opacity:1" />
      <stop offset="100%" style="stop-color:#212529; stop-opacity:1" />
    </linearGradient>
    
    <linearGradient id="addGreen" x1="0%" y1="0%" x2="100%" y2="100%">
      <stop offset="0%" style="stop-color:#2ecc71; stop-opacity:1" />
      <stop offset="100%" style="stop-color:#27ae60; stop-opacity:1" />
    </linearGradient>
    <linearGradient id="editBlue" x1="0%" y1="0%" x2="100%" y2="100%">
      <stop offset="0%" style="stop-color:#3498db; stop-opacity:1" />
      <stop offset="100%" style="stop-color:#2980b9; stop-opacity:1" />
    </linearGradient>
    <linearGradient id="deleteRed" x1="0%" y1="0%" x2="100%" y2="100%">
      <stop offset="0%" style="stop-color:#e74c3c; stop-opacity:1" />
      <stop offset="100%" style="stop-color:#c0392b; stop-opacity:1" />
    </linearGradient>
  </defs>

  <path d="M4,10 h4.5 l1,1 h5 a1,1 0 0,1 1,1 v6 h-11.5 z" fill="url(#addGreen)" opacity="0.8" />
  <path d="M8,13.5 h2 M9,12.5 v2" stroke="#ffffff" stroke-width="1.2" stroke-linecap="round" />

  <path d="M11,6 h8 a1,1 0 0,1 1,1 v11 h-10 z" fill="#ffffff" stroke="#3498db" stroke-width="1" />
  <path d="M13,10 h4 M13,12 h4 M13,14 h2" stroke="#bdc3c7" stroke-width="0.8" />
  <path d="M19,5.5 l1,1 l-3,3 l-1,-1 z" fill="url(#editBlue)" />

  <path d="M16,11 h4.5 l1,1 h5 a1,1 0 0,1 1,1 v5 h-11.5 z" fill="url(#deleteRed)" opacity="0.85" />
  <path d="M22,14.5 l2,2 M24,14.5 l-2,2" stroke="#ffffff" stroke-width="1.2" stroke-linecap="round" />

  <rect x="2" y="15" width="28" height="14" rx="2" fill="#1e2125" />

  <path d="M1,17 h30 v10 a2,2 0 0,1 -2,2 h-26 a2,2 0 0,1 -2,-2 z" fill="url(#drawerMetal)" />
  
  <rect x="11" y="21" width="10" height="2" rx="1" fill="#dee2e6" />
  <rect x="12" y="21.5" width="8" height="0.5" fill="#ffffff" opacity="0.6" />
  
  <rect x="12" y="18.5" width="8" height="1.5" rx="0.3" fill="#ffffff" opacity="0.9" />
  <line x1="13" y1="19.25" x2="19" y2="19.25" stroke="#7f8c8d" stroke-width="0.5" />
</svg>
